<svg id="Layer_5" enable-background="new 0 0 64 64" height="512" viewBox="0 0 64 64" width="512" xmlns="http://www.w3.org/2000/svg" xmlns:xlink="http://www.w3.org/1999/xlink"><linearGradient id="SVGID_1_" gradientUnits="userSpaceOnUse" x1="32" x2="32" y1="63" y2="1"><stop offset="0" stop-color="#9f2fff"/><stop offset="1" stop-color="#0bb1d3"/></linearGradient><path d="m28 29v2c-2.757 0-5 2.243-5 5h-2c0-3.86 3.14-7 7-7zm-21-24h-2v2h2zm4 0h-2v2h2zm4 0h-2v2h2zm48 28v22c0 1.654-1.346 3-3 3h-20c-1.654 0-3-1.346-3-3v-7.029c-2.51 1.893-5.621 3.029-9 3.029-2.709 0-5.246-.733-7.442-1.995l-10.947 12.338c-.934 1.053-2.277 1.657-3.685 1.657-2.716 0-4.926-2.21-4.926-4.926 0-1.408.604-2.751 1.657-3.685l12.338-10.946c-.444-.773-.817-1.59-1.119-2.442h-9.876c-1.654 0-3-1.346-3-3v-34.001c0-1.654 1.346-3 3-3h44c1.654 0 3 1.346 3 3v22.101c.323-.066.658-.101 1-.101 2.414 0 4.434 1.721 4.899 4h3.101c1.654 0 3 1.346 3 3zm-11-5c-1.654 0-3 1.346-3 3s1.346 3 3 3 3-1.346 3-3-1.346-3-3-3zm-49-24v5h46v-5c0-.551-.449-1-1-1h-44c-.551 0-1 .449-1 1zm10.302 35c-.197-.97-.302-1.973-.302-3s.105-2.03.302-3h-8.302v-20h24v8.041c.686.045 1.363.141 2.032.279-.008-.108-.032-.211-.032-.32 0-2.206 1.794-4 4-4s4 1.794 4 4c0 .378-.07.737-.168 1.083l9.364 5.71c.24-.285.507-.543.804-.768v-16.025h-46v27c0 .551.449 1 1 1zm33.799-9c.032-.155.092-.298.138-.447l-9.404-5.734c-.158.159-.334.298-.516.429 1.927 1.535 3.432 3.524 4.41 5.753h5.372zm-10.101-9c0-1.103-.897-2-2-2s-2 .897-2 2 .897 2 2 2 2-.897 2-2zm-10-6h-20v16h6.875c1.959-5.515 7.047-9.546 13.125-9.949zm-8.119 32.882c-1.037-.798-1.965-1.726-2.763-2.763l-12.134 10.766c-.625.554-.984 1.352-.984 2.189 0 1.614 1.312 2.926 2.926 2.926.836 0 1.634-.359 2.189-.984zm9.119 1.118c7.168 0 13-5.832 13-13 0-4.524-2.286-8.615-6.112-11.011-.085-.002-.167-.018-.251-.025l-.85 1.7c3.123 1.942 5.213 5.395 5.213 9.336 0 6.065-4.935 11-11 11s-11-4.935-11-11 4.935-11 11-11c1.412 0 2.758.277 4 .764l.736-1.472c-.267-.184-.501-.408-.716-.65-1.295-.421-2.645-.642-4.02-.642-7.168 0-13 5.832-13 13s5.832 13 13 13zm0-14c-.551 0-1 .449-1 1s.449 1 1 1 1-.449 1-1-.449-1-1-1zm3.101-7.438c-.969-.357-2.01-.562-3.101-.562-4.962 0-9 4.038-9 9s4.038 9 9 9 9-4.038 9-9c0-3.159-1.64-5.938-4.109-7.545l-2.734 5.468c.519.54.843 1.27.843 2.077 0 1.654-1.346 3-3 3s-3-1.346-3-3 1.346-3 3-3c.124 0 .243.022.363.037zm29.899 5.438c0-.551-.449-1-1-1h-3.101c-.465 2.279-2.484 4-4.899 4s-4.434-1.721-4.899-4h-4.656c.361 1.29.555 2.634.555 4 0 3.923-1.526 7.488-4 10.163v8.837c0 .551.449 1 1 1h20c.551 0 1-.449 1-1zm-8 5h6v16h-18v-10h4v-4h6v4h2zm-6 4v10h2v-10zm-4 10h2v-6h-2zm10 0v-6h-2v6zm2 0h2v-12h-2zm-8-39h-14v2h14zm-6 6h6v-2h-6zm-36 18h2v-2h-2zm4 0h2v-2h-2zm2-20h-2v2h2zm0 4h-2v2h2zm0 4h-2v2h2zm2.879 23.707 1.414 1.414 1.414-1.414-1.414-1.414zm-5.586 5.586 1.414 1.414 1.343-1.343-1.414-1.414zm2.757-2.757 1.414 1.414 1.414-1.414-1.414-1.414z" fill="url(#SVGID_1_)"/></svg>