<svg xmlns="http://www.w3.org/2000/svg" xmlns:xlink="http://www.w3.org/1999/xlink" style="margin: auto; background: rgba(255, 255, 255, 0); display: block;" width="200px" height="200px" viewBox="0 0 100 100" preserveAspectRatio="xMidYMid">
<defs><clipPath id="ldio-8od7jh55qq4-cp"><rect x="20" y="0" width="60" height="100"></rect></clipPath></defs>
<path fill="none" stroke="#009ef7" stroke-width="5" stroke-linecap="round" stroke-linejoin="round" stroke-miterlimit="10" clip-path="url(#ldio-8od7jh55qq4-cp)" d="M90,76.7V28.3c0-2.7-2.2-5-5-5h-3.4c-2.7,0-5,2.2-5,5v43.4c0,2.7-2.2,5-5,5h-3.4c-2.7,0-5-2.2-5-5V28.3c0-2.7-2.2-5-5-5H55 c-2.7,0-5,2.2-5,5v43.4c0,2.7-2.2,5-5,5h-3.4c-2.7,0-5-2.2-5-5V28.3c0-2.7-2.2-5-5-5h-3.4c-2.7,0-5,2.2-5,5v43.4c0,2.7-2.2,5-5,5H15 c-2.7,0-5-2.2-5-5V23.3" transform="translate(-6.06082 0)">
  <animateTransform attributeName="transform" type="translate" repeatCount="indefinite" dur="1s" values="-20 0;7 0" keyTimes="0;1"></animateTransform>
  <animate attributeName="stroke-dasharray" repeatCount="indefinite" dur="1s" values="0 72 125 232;0 197 125 233" keyTimes="0;1"></animate>
</path>
</svg>